<?xml version="1.0" encoding="UTF-8" standalone="no"?>
<svg
   style="height: 512px; width: 512px;"
   viewBox="0 0 512 512"
   version="1.1"
   id="svg6"
   sodipodi:docname="fux-dice-roller.svg"
   inkscape:version="1.1 (c68e22c387, 2021-05-23)"
   xmlns:inkscape="http://www.inkscape.org/namespaces/inkscape"
   xmlns:sodipodi="http://sodipodi.sourceforge.net/DTD/sodipodi-0.dtd"
   xmlns="http://www.w3.org/2000/svg"
   xmlns:svg="http://www.w3.org/2000/svg"
   xmlns:rdf="http://www.w3.org/1999/02/22-rdf-syntax-ns#"
   xmlns:cc="http://creativecommons.org/ns#"
   xmlns:dc="http://purl.org/dc/elements/1.1/">
  <metadata
     id="metadata12">
    <rdf:RDF>
      <cc:Work
         rdf:about="">
        <dc:format>image/svg+xml</dc:format>
        <dc:type
           rdf:resource="http://purl.org/dc/dcmitype/StillImage" />
        <dc:title />
      </cc:Work>
    </rdf:RDF>
  </metadata>
  <defs
     id="defs10" />
  <sodipodi:namedview
     pagecolor="#ffffff"
     bordercolor="#666666"
     borderopacity="1"
     objecttolerance="10"
     gridtolerance="10"
     guidetolerance="10"
     inkscape:pageopacity="0"
     inkscape:pageshadow="2"
     inkscape:window-width="1227"
     inkscape:window-height="827"
     id="namedview8"
     showgrid="true"
     inkscape:zoom="1.2837432"
     inkscape:cx="164.36309"
     inkscape:cy="273.41918"
     inkscape:window-x="2079"
     inkscape:window-y="160"
     inkscape:window-maximized="0"
     inkscape:current-layer="svg6"
     inkscape:document-rotation="0"
     inkscape:pagecheckerboard="0">
    <inkscape:grid
       type="xygrid"
       id="grid850" />
  </sodipodi:namedview>
  <path
     id="path855"
     style="stroke-width:0.512;fill:#f0f0e0;stroke:#f0f0e0;fill-opacity:1;stroke-opacity:1"
     d="M 46.578125 20.400391 C 32.075636 20.400391 20.400391 32.075636 20.400391 46.578125 L 20.400391 465.42188 C 20.400391 479.92435 32.075636 491.59961 46.578125 491.59961 L 465.42188 491.59961 C 479.92435 491.59961 491.59961 479.92436 491.59961 465.42188 L 491.59961 46.578125 C 491.59961 32.075636 479.92436 20.400391 465.42188 20.400391 L 46.578125 20.400391 z M 78.908203 110 L 224.36719 110 L 224 182.54492 L 156.63672 182.54492 L 156.63672 213.63672 L 192.9082 213.63672 L 192.9082 291.36328 L 156.63672 291.36328 L 156.63672 395 L 78.908203 395 L 78.908203 110 z M 265.45508 110 L 338 110 L 338 312.0918 C 338 312.0918 338.00037 322.45508 345.98828 322.45508 C 353.97617 322.45508 353.54492 312.0918 353.54492 312.0918 L 353.54492 110 L 426.0918 110 L 426.0918 327.63672 C 426.0918 327.63672 426.09055 395 348.36328 395 C 270.63601 395 265.45508 327.63672 265.45508 327.63672 L 265.45508 110 z " />
</svg>
